Coordinates
version=1
nRows=41
nColumns=38
inDegrees=no

Units are S.I. units (second, meters, Newtons, ...)
If the header above contains a line with 'inDegrees', this indicates whether rotational values are in degrees (yes) or radians (no).

endheader
time	pelvis_tilt	pelvis_list	pelvis_rotation	pelvis_tx	pelvis_ty	pelvis_tz	hip_flexion_r	hip_adduction_r	hip_rotation_r	knee_angle_r	ankle_angle_r	subtalar_angle_r	mtp_angle_r	hip_flexion_l	hip_adduction_l	hip_rotation_l	knee_angle_l	ankle_angle_l	subtalar_angle_l	mtp_angle_l	lumbar_extension	lumbar_bending	lumbar_rotation	arm_flex_r	arm_add_r	arm_rot_r	elbow_flex_r	pro_sup_r	wrist_flex_r	wrist_dev_r	arm_flex_l	arm_add_l	arm_rot_l	elbow_flex_l	pro_sup_l	wrist_flex_l	wrist_dev_l
0	1.8154	1.38952	-0.275673	0.728364	-0.374791	0.981037	-0.0329717	0.1689	-0.236357	0.217988	0.0855702	0	0	-0.156368	-0.146497	-0.174837	0	0.0623327	0	0	-0.0941739	0.2111	0.0407344	-0.127846	-0.315134	0.352636	0.573512	1.17364	0	0	-0.0625912	-0.241938	0.60622	0.542509	0.881398	0	0
0.01	1.82566	1.38998	-0.283833	0.728176	-0.374697	0.980944	-0.033284	0.172456	-0.227596	0.220043	0.081493	0	0	-0.149981	-0.145689	-0.169732	0	0.0616564	0	0	-0.0959459	0.209339	0.0402856	-0.122043	-0.314817	0.355213	0.569534	1.17431	0	0	-0.05826	-0.241028	0.611061	0.535622	0.874996	0	0
0.02	1.82522	1.38999	-0.283614	0.728007	-0.37429	0.980853	-0.0334381	0.172254	-0.226998	0.22055	0.0822252	0	0	-0.150564	-0.145407	-0.169788	0	0.062063	0	0	-0.0956907	0.208862	0.0410885	-0.118862	-0.315408	0.356316	0.56911	1.17455	0	0	-0.0578356	-0.240157	0.610262	0.534348	0.869387	0	0
0.03	1.82528	1.39011	-0.283736	0.727837	-0.373938	0.980787	-0.0334764	0.17185	-0.226412	0.221253	0.0830721	0	0	-0.151038	-0.144993	-0.169606	0	0.0622284	0	0	-0.0955539	0.208243	0.0415576	-0.115663	-0.31595	0.3586	0.568384	1.17563	0	0	-0.0576079	-0.238948	0.607948	0.533639	0.864737	0	0
0.04	1.82483	1.39039	-0.282326	0.727602	-0.373527	0.980707	-0.0335743	0.171378	-0.227018	0.221527	0.0839033	0	0	-0.151096	-0.144637	-0.168572	0	0.0625031	0	0	-0.0948645	0.207536	0.0408193	-0.112797	-0.316317	0.361752	0.567319	1.1778	0	0	-0.0578703	-0.237564	0.604755	0.532952	0.860599	0	0
0.05	1.82426	1.39075	-0.280376	0.727336	-0.373106	0.980624	-0.0336496	0.170835	-0.228304	0.221731	0.084632	0	0	-0.151009	-0.144254	-0.167584	0	0.063079	0	0	-0.0940178	0.206777	0.0398034	-0.110596	-0.316041	0.36004	0.568238	1.17532	0	0	-0.0580999	-0.236457	0.602701	0.532209	0.856768	0	0
0.06	1.82411	1.39107	-0.278639	0.727073	-0.37268	0.980542	-0.0338379	0.170352	-0.229754	0.221882	0.0853924	0	0	-0.15094	-0.143865	-0.166433	0	0.0635872	0	0	-0.0932322	0.206034	0.0386725	-0.10872	-0.315812	0.359907	0.568941	1.17283	0	0	-0.0585884	-0.235543	0.60058	0.532333	0.853166	0	0
0.07	1.82535	1.39139	-0.278144	0.726779	-0.372201	0.98048	-0.0345377	0.169874	-0.230648	0.221675	0.0860977	0	0	-0.151153	-0.143405	-0.165277	0	0.064059	0	0	-0.0925132	0.205308	0.0376192	-0.107399	-0.316027	0.362546	0.569009	1.17215	0	0	-0.0589	-0.234547	0.59902	0.532463	0.850587	0	0
0.08	1.82706	1.39141	-0.278198	0.726499	-0.371713	0.980438	-0.0355073	0.16962	-0.231574	0.221285	0.0866148	0	0	-0.151546	-0.14325	-0.1644	0	0.0647041	0	0	-0.0919715	0.204886	0.036877	-0.106641	-0.315971	0.362128	0.570854	1.16863	0	0	-0.0590766	-0.233673	0.598618	0.532569	0.848699	0	0
0.09	1.82747	1.39152	-0.276999	0.726215	-0.371311	0.980391	-0.0360386	0.169306	-0.232783	0.221045	0.0870913	0	0	-0.151532	-0.143068	-0.1635	0	0.0654665	0	0	-0.091313	0.204514	0.0360692	-0.105704	-0.315899	0.362996	0.571743	1.16559	0	0	-0.0591304	-0.23284	0.598985	0.532414	0.846744	0	0
0.1	1.82815	1.39164	-0.276081	0.725921	-0.370983	0.980348	-0.0365284	0.168971	-0.234089	0.22089	0.0874834	0	0	-0.151523	-0.142838	-0.162531	0	0.0662791	0	0	-0.0908676	0.204159	0.0351865	-0.104603	-0.315903	0.364359	0.572181	1.16373	0	0	-0.0592482	-0.232145	0.59954	0.532536	0.844797	0	0
0.11	1.8293	1.39162	-0.275707	0.725616	-0.370663	0.980298	-0.03706	0.168715	-0.235661	0.220826	0.0878195	0	0	-0.15163	-0.14273	-0.161532	0	0.0670415	0	0	-0.0906428	0.203968	0.0343821	-0.103383	-0.315849	0.365849	0.572334	1.16305	0	0	-0.0594613	-0.231605	0.600271	0.532818	0.843795	0	0
0.12	1.83119	1.39132	-0.276124	0.725373	-0.370305	0.980253	-0.0379141	0.168728	-0.237544	0.220641	0.0882278	0	0	-0.152077	-0.142918	-0.160509	0	0.0676313	0	0	-0.0905726	0.203991	0.0335271	-0.102178	-0.315672	0.367229	0.571829	1.16259	0	0	-0.0600536	-0.231174	0.599948	0.533902	0.843708	0	0
0.13	1.83392	1.39118	-0.277316	0.725111	-0.36995	0.980218	-0.0388267	0.168516	-0.238803	0.22056	0.0888076	0	0	-0.152584	-0.14285	-0.159142	0	0.0679806	0	0	-0.0906681	0.203875	0.0324555	-0.101063	-0.31541	0.368113	0.571153	1.16219	0	0	-0.0609967	-0.230697	0.59851	0.535402	0.844479	0	0
0.14	1.81572	1.40708	-0.258612	0.724972	-0.368561	0.978734	-0.0448483	0.154959	-0.211525	0.196442	0.0922478	0	0	-0.153909	-0.126632	-0.157842	0	0.0687931	0	0	-0.0791778	0.18696	0.0281893	-0.103	-0.311748	0.368458	0.571915	1.1592	0	0	-0.0684099	-0.235535	0.59433	0.543855	0.847539	0	0
0.15	1.82457	1.39149	-0.268057	0.724589	-0.368895	0.980101	-0.0410334	0.164383	-0.242806	0.215602	0.0928459	0	0	-0.159417	-0.142494	-0.161244	0	0.0693639	0	0	-0.0880739	0.204173	0.0312644	-0.09916	-0.315031	0.36845	0.571103	1.15873	0	0	-0.0652422	-0.229467	0.593608	0.539508	0.848134	0	0
0.16	1.82541	1.39138	-0.267578	0.724283	-0.368674	0.980015	-0.0400101	0.163596	-0.247557	0.218744	0.0947775	0	0	-0.159322	-0.142548	-0.159325	0	0.0700219	0	0	-0.08823	0.20431	0.0300946	-0.0979374	-0.314769	0.368846	0.570415	1.15884	0	0	-0.0663636	-0.228631	0.591274	0.540505	0.849588	0	0
0.17	1.80751	1.40713	-0.248057	0.724263	-0.367849	0.978458	-0.0425749	0.153977	-0.217775	0.199502	0.094314	0	0	-0.152144	-0.126762	-0.153642	0	0.0703578	0	0	-0.0776407	0.187229	0.0258114	-0.0989648	-0.310781	0.37156	0.568062	1.16044	0	0	-0.0730693	-0.233193	0.585233	0.548256	0.855482	0	0
0.18	1.81375	1.39185	-0.254688	0.723862	-0.368168	0.979717	-0.0379617	0.163273	-0.24711	0.218994	0.0949719	0	0	-0.157151	-0.142476	-0.156007	0	0.0709138	0	0	-0.0855401	0.204462	0.0280839	-0.0952388	-0.314085	0.372283	0.566656	1.16048	0	0	-0.0703765	-0.227143	0.584873	0.543603	0.856458	0	0
0.19	1.80865	1.39114	-0.248318	0.723571	-0.368003	0.97959	-0.0361598	0.163122	-0.251589	0.222076	0.0969874	0	0	-0.156259	-0.143468	-0.153625	0	0.0714726	0	0	-0.0847058	0.20571	0.0266541	-0.0940674	-0.314219	0.373896	0.565801	1.16077	0	0	-0.0714573	-0.225866	0.583053	0.543605	0.858101	0	0
0.2	1.75878	1.40442	-0.20003	0.723916	-0.367748	0.977938	-0.0255219	0.154638	-0.244433	0.21729	0.0999558	0	0	-0.144097	-0.131457	-0.149843	0	0.071956	0	0	-0.0709947	0.192419	0.0255295	-0.0946329	-0.310712	0.375712	0.564094	1.1579	0	0	-0.0768122	-0.228834	0.577421	0.548422	0.863757	0	0
0.21	1.74383	1.40394	-0.184206	0.723765	-0.367624	0.977688	-0.0225788	0.155513	-0.245255	0.218228	0.100176	0	0	-0.141492	-0.132609	-0.14754	0	0.0725612	0	0	-0.0683838	0.193511	0.0239604	-0.0935204	-0.310397	0.377279	0.563066	1.15613	0	0	-0.0786006	-0.227746	0.574097	0.548817	0.866088	0	0
0.22	1.71205	1.40212	-0.152856	0.723713	-0.367356	0.977321	-0.0170854	0.158289	-0.244813	0.218878	0.0992682	0	0	-0.136383	-0.135591	-0.146992	0	0.0738604	0	0	-0.0631097	0.196984	0.021492	-0.0918514	-0.311059	0.382273	0.562021	1.15394	0	0	-0.0673652	-0.216219	0.574503	0.510166	0.879276	0	0
0.23	1.72762	1.402	-0.168625	0.723724	-0.366984	0.977402	-0.0205575	0.157874	-0.24564	0.218533	0.099978	0	0	-0.140253	-0.135175	-0.148038	0	0.0741758	0	0	-0.0644146	0.195963	0.0252399	-0.0947199	-0.310115	0.379076	0.562695	1.15293	0	0	-0.0801789	-0.224589	0.570506	0.544202	0.878359	0	0
0.24	1.7413	1.40208	-0.182964	0.723639	-0.36647	0.977557	-0.0240569	0.157242	-0.245246	0.217784	0.100514	0	0	-0.14432	-0.134235	-0.149723	0	0.0739077	0	0	-0.0658107	0.195261	0.0270446	-0.0961005	-0.309646	0.377769	0.562481	1.15299	0	0	-0.0813742	-0.224821	0.571635	0.546699	0.876611	0	0
0.25	1.79489	1.39059	-0.232718	0.72302	-0.366459	0.978987	-0.032277	0.168363	-0.244571	0.226662	0.094416	0	0	-0.14867	-0.144463	-0.148702	0	0.0728096	0	0	-0.0782371	0.206349	0.0280395	-0.0961682	-0.31191	0.376729	0.562415	1.15393	0	0	-0.0777028	-0.220864	0.575033	0.542416	0.874892	0	0
0.26	1.81386	1.38962	-0.251559	0.722874	-0.366057	0.979216	-0.0372275	0.168551	-0.24437	0.225304	0.093997	0	0	-0.153185	-0.144399	-0.149827	0	0.0726461	0	0	-0.0813451	0.206439	0.0293643	-0.0976134	-0.311671	0.37479	0.563315	1.15537	0	0	-0.0773715	-0.220595	0.578411	0.541766	0.872555	0	0
0.27	1.8214	1.38928	-0.259596	0.722805	-0.365705	0.979316	-0.0395006	0.168484	-0.243699	0.224674	0.0940021	0	0	-0.155391	-0.14416	-0.151151	0	0.0727042	0	0	-0.0821972	0.206396	0.030966	-0.0992629	-0.311098	0.371783	0.563794	1.15689	0	0	-0.0772204	-0.220404	0.582433	0.541217	0.868784	0	0
0.28	1.82563	1.38906	-0.264283	0.722742	-0.365417	0.979382	-0.040929	0.168444	-0.243072	0.224256	0.0939809	0	0	-0.156789	-0.143977	-0.152115	0	0.0727752	0	0	-0.0825085	0.206437	0.0321673	-0.100629	-0.310585	0.369126	0.564462	1.15714	0	0	-0.0771496	-0.22015	0.586142	0.540408	0.865459	0	0
0.29	1.82932	1.38882	-0.268438	0.722709	-0.365053	0.979448	-0.0425367	0.168571	-0.242529	0.223446	0.0938863	0	0	-0.158178	-0.143885	-0.153254	0	0.072616	0	0	-0.0825705	0.206486	0.0330723	-0.102144	-0.310134	0.366565	0.565493	1.15671	0	0	-0.0775639	-0.220046	0.589447	0.539725	0.862102	0	0
0.3	1.83144	1.38862	-0.270885	0.722684	-0.36473	0.979504	-0.0437376	0.168782	-0.242295	0.222708	0.0937135	0	0	-0.159164	-0.143837	-0.1543	0	0.0726903	0	0	-0.082445	0.206565	0.0336248	-0.103527	-0.309705	0.364625	0.566085	1.15651	0	0	-0.0780419	-0.219949	0.591923	0.539422	0.858872	0	0
0.31	1.83136	1.3885	-0.270996	0.722662	-0.364475	0.979535	-0.0443444	0.168995	-0.242036	0.222093	0.0934971	0	0	-0.159579	-0.143876	-0.155002	0	0.0727031	0	0	-0.082104	0.206688	0.0341178	-0.104799	-0.308963	0.362248	0.566356	1.15693	0	0	-0.0782862	-0.219886	0.594179	0.539379	0.856112	0	0
0.32	1.82939	1.3884	-0.269274	0.722635	-0.36427	0.979548	-0.0444488	0.169204	-0.24165	0.221605	0.0932373	0	0	-0.159544	-0.14396	-0.155568	0	0.0727598	0	0	-0.0815235	0.206993	0.0345855	-0.106001	-0.308334	0.360016	0.566975	1.15743	0	0	-0.0783251	-0.219463	0.595825	0.538829	0.854284	0	0
0.33	1.82581	1.38844	-0.265919	0.722605	-0.364106	0.97954	-0.0440236	0.169312	-0.241311	0.22145	0.0930808	0	0	-0.159064	-0.143997	-0.155791	0	0.0727233	0	0	-0.0807172	0.207276	0.0348792	-0.10701	-0.307751	0.357895	0.567255	1.15809	0	0	-0.0784582	-0.219034	0.597305	0.538108	0.852644	0	0
0.34	1.82174	1.38855	-0.261928	0.72258	-0.363986	0.979522	-0.0433529	0.169377	-0.241167	0.221417	0.0929122	0	0	-0.158399	-0.144004	-0.155707	0	0.0728462	0	0	-0.0799449	0.207511	0.0348747	-0.107615	-0.307282	0.357006	0.566417	1.15963	0	0	-0.078525	-0.218638	0.598338	0.53759	0.851792	0	0
0.35	1.82137	1.38841	-0.262134	0.722618	-0.363809	0.979546	-0.0437852	0.169627	-0.240469	0.220929	0.0926894	0	0	-0.158743	-0.144062	-0.156544	0	0.0732283	0	0	-0.079969	0.20772	0.0352593	-0.107902	-0.306876	0.358005	0.564465	1.16323	0	0	-0.0786631	-0.218343	0.598889	0.537418	0.851766	0	0
0.36	1.82066	1.38828	-0.261884	0.722641	-0.363687	0.979558	-0.0440395	0.169864	-0.239762	0.22058	0.0925448	0	0	-0.15889	-0.144158	-0.157012	0	0.0733086	0	0	-0.0800695	0.207954	0.0356571	-0.108157	-0.306504	0.35829	0.563305	1.16592	0	0	-0.0785395	-0.217988	0.599379	0.536981	0.851893	0	0
0.37	1.81993	1.38818	-0.261408	0.722657	-0.363605	0.979567	-0.0440739	0.170001	-0.239383	0.22052	0.0924549	0	0	-0.158896	-0.14423	-0.15709	0	0.0733606	0	0	-0.0802712	0.208171	0.0359821	-0.108418	-0.306033	0.357203	0.562972	1.16692	0	0	-0.0782308	-0.217645	0.599776	0.536551	0.852154	0	0
0.38	1.81836	1.38826	-0.259994	0.722678	-0.363528	0.979559	-0.043873	0.170044	-0.239273	0.220451	0.0924428	0	0	-0.158659	-0.14417	-0.156995	0	0.0733626	0	0	-0.0802758	0.208245	0.0361173	-0.10868	-0.3056	0.355989	0.563133	1.16634	0	0	-0.0779187	-0.21736	0.600015	0.536351	0.852656	0	0
0.39	1.81853	1.38812	-0.260886	0.722757	-0.363406	0.979585	-0.0442634	0.170254	-0.238455	0.220169	0.0922889	0	0	-0.159049	-0.144218	-0.157814	0	0.0733385	0	0	-0.0807005	0.208392	0.0368026	-0.10908	-0.305243	0.355192	0.563357	1.16509	0	0	-0.0776515	-0.217083	0.599985	0.536273	0.853345	0	0
0.4	1.81811	1.38807	-0.261112	0.722845	-0.363337	0.979604	-0.0442893	0.170302	-0.237674	0.220243	0.0921988	0	0	-0.159221	-0.144259	-0.158402	0	0.0734657	0	0	-0.0810762	0.208486	0.0373098	-0.109086	-0.304998	0.355767	0.562244	1.16526	0	0	-0.0770998	-0.216581	0.599618	0.535789	0.854016	0	0
